<svg width="22" height="21" viewBox="0 0 22 21" fill="none" xmlns="http://www.w3.org/2000/svg">
<path d="M6.53284 9.625H8.28284V11.375H6.53284V9.625ZM6.53284 13.125H8.28284V14.875H6.53284V13.125ZM10.0328 9.625H11.7828V11.375H10.0328V9.625ZM10.0328 13.125H11.7828V14.875H10.0328V13.125ZM13.5328 9.625H15.2828V11.375H13.5328V9.625ZM13.5328 13.125H15.2828V14.875H13.5328V13.125Z" fill="#AD9A85"/>
<path d="M4.78284 19.25H17.0328C17.998 19.25 18.7828 18.4651 18.7828 17.5V5.25C18.7828 4.28487 17.998 3.5 17.0328 3.5H15.2828V1.75H13.5328V3.5H8.28284V1.75H6.53284V3.5H4.78284C3.81771 3.5 3.03284 4.28487 3.03284 5.25V17.5C3.03284 18.4651 3.81771 19.25 4.78284 19.25ZM17.0328 7L17.0337 17.5H4.78284V7H17.0328Z" fill="#AD9A85"/>
</svg>
