<svg width="25" height="25" viewBox="0 0 25 25" fill="none" xmlns="http://www.w3.org/2000/svg">
<mask id="mask0" mask-type="alpha" maskUnits="userSpaceOnUse" x="0" y="0" width="25" height="25">
<circle cx="12.2535" cy="12.2535" r="12.2535" fill="#C4C4C4"/>
</mask>
<g mask="url(#mask0)">
<path d="M30.6264 24.3613H-5.27429C-5.62833 24.3613 -5.91541 24.0742 -5.91541 23.7202V0.641115C-5.91541 0.287078 -5.62833 0 -5.27429 0H30.6265C30.9805 0 31.2676 0.287078 31.2676 0.641115V23.7202C31.2675 24.0742 30.9805 24.3613 30.6264 24.3613Z" fill="#41479B"/>
<path d="M31.2675 0.641115C31.2675 0.287078 30.9805 0 30.6264 0H27.7582L15.8814 7.78133V0H9.47057V7.78133L-2.40612 0H-5.27429C-5.62833 0 -5.91541 0.287078 -5.91541 0.641115V2.29917L4.27425 8.97518H-5.91541V15.386H4.27425L-5.91541 22.0621V23.7202C-5.91541 24.0742 -5.62833 24.3613 -5.27429 24.3613H-2.40605L9.47071 16.58V24.3613H15.8816V16.58L27.7583 24.3613H30.6266C30.9806 24.3613 31.2677 24.0742 31.2677 23.7202V22.0621L21.078 15.3861H31.2675V8.97525H21.0779L31.2675 2.29917V0.641115Z" fill="#F5F5F5"/>
<path d="M31.2675 10.2574H14.5993V0H10.7528V10.2574H-5.91541V14.1039H10.7528V24.3613H14.5993V14.1039H31.2675V10.2574Z" fill="#FF4B55"/>
<path d="M7.08024 15.386L-5.89734 23.81C-5.85195 24.1196 -5.59668 24.3612 -5.27445 24.3612H-4.39143L9.43526 15.3861H7.08024V15.386Z" fill="#FF4B55"/>
<path d="M19.2403 15.386H16.8853L30.6918 24.3479C31.0136 24.3137 31.2676 24.0509 31.2676 23.7201V23.193L19.2403 15.386Z" fill="#FF4B55"/>
<path d="M-5.91541 1.3488L5.83346 8.97522H8.18848L-5.54191 0.0625C-5.76123 0.16439 -5.91541 0.383348 -5.91541 0.641086V1.3488Z" fill="#FF4B55"/>
<path d="M18.2365 8.97518L31.2452 0.530801C31.1912 0.231449 30.9414 0 30.6264 0H29.7079L15.8815 8.97518H18.2365Z" fill="#FF4B55"/>
</g>
</svg>
