<svg width="137" height="87" viewBox="0 0 137 87" fill="none" xmlns="http://www.w3.org/2000/svg">
<path d="M75.3194 77.7181L75.9478 78.0594C75.7584 78.7074 75.5326 79.2718 75.2705 79.7526C75.0129 80.2269 74.7432 80.6109 74.4612 80.9043C74.1846 81.1969 73.9455 81.3599 73.7436 81.3934C73.5473 81.426 73.2623 81.3304 72.8888 81.1066C72.5208 80.8818 72.1383 80.5698 71.7412 80.1704C71.3442 79.7711 70.9913 79.3168 70.6825 78.8076C70.3792 78.2974 70.1841 77.7805 70.0971 77.2568C70.0065 76.7113 70.0232 76.1536 70.1472 75.5837C70.2766 75.0129 70.4587 74.5062 70.6935 74.0636C70.9329 73.6147 71.1854 73.2448 71.451 72.9541C71.7157 72.6579 71.9299 72.4962 72.0935 72.469C72.2626 72.441 72.584 72.4857 73.0575 72.6032C73.5365 72.7199 73.9819 72.8702 74.3936 73.054C74.8053 73.2379 75.0247 73.4117 75.0519 73.5753C75.06 73.6244 75.0049 73.7989 74.8866 74.0988C74.7728 74.3924 74.6399 74.6723 74.4879 74.9386C74.3405 75.1985 74.2122 75.3375 74.1031 75.3556C74.0377 75.3665 73.9522 75.3246 73.8468 75.23C73.7469 75.1345 73.5938 74.989 73.3876 74.7934C73.1813 74.5978 72.9282 74.4408 72.6283 74.3225C72.3339 74.2032 71.958 74.1339 71.5007 74.1146C71.3814 74.5436 71.3693 75.0445 71.4644 75.6172C71.5414 76.0809 71.7352 76.5728 72.0458 77.093C72.3555 77.6077 72.7384 78.057 73.1945 78.4409C73.6497 78.8193 74.1123 79.0564 74.5822 79.1522C74.7187 78.9613 74.8142 78.8109 74.8688 78.701C74.9289 78.5901 75.0136 78.4079 75.1228 78.1543C75.2375 77.8999 75.303 77.7544 75.3194 77.7181Z" fill="#3F5E2D"/>
<path d="M78.9786 73.1226C78.9536 73.8165 78.8826 74.52 78.7654 75.2331C78.6535 75.9447 78.5907 76.4341 78.5767 76.7013C78.5613 76.9631 78.6169 77.3289 78.7435 77.7988C78.801 78.0124 78.8729 78.2049 78.9592 78.3764C79.044 78.5425 79.1763 78.7359 79.356 78.9567C79.415 79.0267 79.4936 79.1058 79.5917 79.1939C79.6952 79.2805 79.7641 79.345 79.7985 79.3873C79.8367 79.4228 79.8608 79.4593 79.8709 79.4966C79.9068 79.6301 79.8207 79.7249 79.6124 79.781C79.4615 79.8159 79.3239 79.8473 79.1997 79.875C79.0769 79.9081 78.9247 79.9491 78.7431 79.998C78.6577 80.021 78.5283 80.0616 78.355 80.1197C78.1817 80.1778 78.055 80.2177 77.9749 80.2393C77.7507 80.2997 77.5971 80.3038 77.5144 80.2516C77.4369 80.198 77.3666 80.0538 77.3033 79.8189C77.1998 79.4344 77.1601 79.0213 77.1843 78.5796C77.2123 78.1311 77.278 77.6839 77.3812 77.238C77.4831 76.7868 77.6077 76.3352 77.7551 75.8832C77.7918 75.7645 77.8745 75.5188 78.0033 75.1463C78.132 74.7737 78.2355 74.4566 78.314 74.195C78.3924 73.9334 78.4521 73.6767 78.4932 73.4252C78.5342 73.1736 78.531 72.9597 78.4835 72.7835C78.4591 72.6927 78.3832 72.5385 78.2558 72.3208L78.2019 72.1206C78.2187 72.013 78.3152 71.9355 78.4914 71.888L79.9651 71.4911C80.2 71.4278 80.3601 71.4162 80.4453 71.4562C80.5291 71.4909 80.5994 71.5922 80.6561 71.7602C80.7167 71.9214 80.8071 72.172 80.9272 72.5118C81.0513 72.8449 81.2166 73.1927 81.423 73.5551C81.9425 74.4632 82.357 75.1304 82.6665 75.5567C82.98 75.9762 83.3645 76.4682 83.8201 77.0327C84.2756 77.5972 84.53 77.9782 84.5832 78.1758C84.6105 78.2772 84.5931 78.3506 84.5309 78.396C84.474 78.44 84.3601 78.485 84.1893 78.531C84.0704 78.5573 83.9629 78.5834 83.8668 78.6093C83.7692 78.6298 83.651 78.6588 83.5122 78.6962C83.368 78.735 83.2513 78.7693 83.162 78.7991C83.0712 78.8236 82.9705 78.8536 82.8598 78.8891C82.6836 78.9366 82.5393 78.9325 82.427 78.8768C82.3132 78.8159 82.1682 78.6602 81.9919 78.4099C81.8143 78.1542 81.4881 77.6236 81.0134 76.818C80.5358 76.0017 80.2008 75.4277 80.0083 75.0958C79.8144 74.7587 79.6167 74.3967 79.4152 74.01C79.2123 73.618 79.0667 73.3222 78.9786 73.1226Z" fill="#3F5E2D"/>
<path d="M86.6979 69.3138L88.3568 68.8103C88.4785 68.7734 88.5542 68.7851 88.5841 68.8453C88.5889 68.8612 88.6308 68.9612 88.7098 69.1452C88.7925 69.3224 88.8647 69.4652 88.9265 69.5736C89.4665 70.4961 89.9643 71.2985 90.4199 71.9808C90.4768 72.0733 90.7456 72.4829 91.2262 73.2096C91.7052 73.931 92.0333 74.4122 92.2104 74.6532C92.3701 74.8937 92.5177 75.0945 92.6533 75.2556C92.7873 75.4114 92.8591 75.5052 92.8687 75.5369C92.8976 75.6322 92.8036 75.7127 92.5867 75.7785L90.9278 76.282C90.8538 76.3045 90.7914 76.28 90.7409 76.2087C90.6903 76.1374 90.5312 75.8794 90.2633 75.4348C90.0008 74.9887 89.7096 74.5338 89.3898 74.0704C89.3727 75.9941 88.7821 77.1326 87.618 77.4859C86.9671 77.6834 86.4441 77.5879 86.0488 77.1994C85.6535 76.8108 85.3827 76.3758 85.2366 75.8943C85.0985 75.4392 85.1137 74.9088 85.2823 74.3028C85.4562 73.6953 85.7043 73.0277 86.0267 72.3C86.2092 71.8921 86.3735 71.5388 86.5198 71.2401C86.6714 70.9399 86.7687 70.737 86.8118 70.6314C86.8549 70.5259 86.8628 70.4282 86.8355 70.3382C86.7905 70.19 86.7125 70.0375 86.6013 69.8805C86.4937 69.7167 86.4271 69.5924 86.4014 69.5078C86.3822 69.4443 86.481 69.3796 86.6979 69.3138ZM87.3195 70.8761C87.0285 71.4787 86.8224 72.018 86.701 72.494C86.5833 72.9631 86.5231 73.3455 86.5204 73.641C86.5176 73.9366 86.5427 74.1717 86.5957 74.3463C86.6857 74.6426 86.8464 74.877 87.0778 75.0494C87.3077 75.2166 87.5788 75.2528 87.8909 75.158C88.1661 75.0745 88.3868 74.9353 88.553 74.7404C88.7229 74.5386 88.8329 74.3203 88.883 74.0855C88.9383 73.8491 88.9355 73.6304 88.8745 73.4293C88.8424 73.3235 88.7302 73.1061 88.5379 72.7773C88.351 72.4469 88.1332 72.0911 87.8846 71.7101C87.6361 71.329 87.4477 71.051 87.3195 70.8761Z" fill="#3F5E2D"/>
<path d="M93.0474 67.4627L96.9114 66.1762C97.4518 65.9962 97.8601 65.9186 98.1364 65.9431C98.4109 65.9625 98.6154 66.1741 98.7499 66.5781C98.8932 67.0083 98.8738 67.4227 98.6918 67.8214C98.5098 68.22 98.2404 68.5836 97.8836 68.9122C97.5302 69.2338 97.1174 69.5607 96.6452 69.8928L96.6793 69.9951C97.2633 69.9463 97.8806 69.9535 98.531 70.0167C99.1798 70.0746 99.7734 70.2471 100.312 70.534C100.849 70.8157 101.211 71.2399 101.4 71.8065C101.561 72.2892 101.535 72.6328 101.324 72.8373C101.115 73.0348 100.778 73.2113 100.311 73.3668L95.3766 75.0097C95.2192 75.0621 95.0836 75.0402 94.97 74.944C94.8599 74.8408 94.7314 74.6038 94.5847 74.233C94.4362 73.857 94.2222 73.2493 93.9427 72.4099C93.5968 71.3711 93.327 70.5342 93.1331 69.8994C92.9375 69.2594 92.8082 68.7749 92.7454 68.4462C92.686 68.1104 92.6809 67.8761 92.7299 67.7432C92.7789 67.6104 92.8847 67.5168 93.0474 67.4627ZM95.3416 69.9946C95.9134 69.8042 96.3245 69.4634 96.5747 68.9721C96.8249 68.4808 96.8749 68.0096 96.7247 67.5584C96.6373 67.2961 96.4905 67.1526 96.2842 67.1281C96.0831 67.1018 95.8094 67.1463 95.4632 67.2616L94.9988 67.4161C94.9201 67.4424 94.8554 67.4668 94.8047 67.4895C94.7575 67.5052 94.7059 67.5253 94.6499 67.5498C94.8088 68.272 95.0394 69.087 95.3416 69.9946ZM96.67 73.9321C96.6963 73.9234 96.837 73.8823 97.0924 73.809C97.3477 73.7356 97.5488 73.6745 97.6957 73.6256C98.2571 73.4387 98.634 73.2578 98.8264 73.083C99.024 72.9065 99.0512 72.6031 98.908 72.1729C98.791 71.8214 98.5629 71.4952 98.2238 71.1943C97.8881 70.8864 97.4816 70.6721 97.0043 70.5513C96.5322 70.4287 96.047 70.4504 95.5486 70.6163C95.587 70.7317 95.6481 70.9416 95.7319 71.2459C95.821 71.5484 95.8953 71.7889 95.9546 71.9673C96.0402 72.2244 96.2787 72.8793 96.67 73.9321Z" fill="#3F5E2D"/>
<path d="M102.169 64.2097L106.15 62.6822C106.246 62.6394 106.33 62.6041 106.402 62.5764C106.478 62.5415 106.554 62.5092 106.632 62.4795C106.761 62.43 106.857 62.4878 106.92 62.653C107.065 63.0299 107.304 63.7465 107.639 64.8027C107.976 65.8519 108.219 66.57 108.368 66.9572C108.405 67.0553 108.504 67.2749 108.665 67.6161C108.829 67.9501 108.998 68.2996 109.174 68.6646C109.348 69.0244 109.451 69.2482 109.485 69.3359C109.554 69.5166 109.562 69.6528 109.508 69.7445C109.455 69.8361 109.278 69.9394 108.979 70.0543L108.15 70.3723C107.995 70.4317 107.866 70.434 107.762 70.3792C107.658 70.3243 107.55 70.1908 107.439 69.9787C107.327 69.7615 107.126 69.3171 106.839 68.6455C106.555 67.9669 106.339 67.4575 106.19 67.1176C105.689 67.4463 105.32 67.8365 105.085 68.2881C104.85 68.7397 104.771 69.2675 104.849 69.8714C104.88 70.0608 104.923 70.2427 104.978 70.417C105.036 70.5842 105.086 70.7307 105.129 70.8566C105.171 70.9825 105.192 71.0901 105.191 71.1794C105.175 71.3394 105.114 71.4576 105.007 71.5342C104.903 71.6036 104.72 71.6888 104.456 71.7898L103.821 72.0335C103.45 72.1762 103.195 72.2445 103.056 72.2384C102.921 72.2252 102.821 72.136 102.758 71.9708C102.649 71.6868 102.626 71.2485 102.689 70.6559C102.755 70.056 102.965 69.448 103.321 68.8317C103.68 68.2083 104.215 67.7039 104.926 67.3185L104.893 67.2333C103.859 67.3933 103.012 67.3927 102.352 67.2314C101.692 67.0702 101.234 66.6565 100.978 65.9906C100.796 65.5156 100.798 65.1593 100.986 64.9216C101.176 64.6768 101.571 64.4395 102.169 64.2097ZM104.148 64.0635C103.781 64.2041 103.525 64.332 103.38 64.447C103.24 64.5601 103.165 64.6807 103.155 64.8089C103.144 64.9371 103.184 65.1174 103.273 65.3497C103.42 65.7318 103.641 66.0291 103.935 66.2417C104.235 66.4523 104.565 66.5776 104.924 66.6176C105.288 66.6556 105.64 66.6092 105.981 66.4784L105.791 65.9828C105.549 65.353 105.308 64.5953 105.069 63.7098L104.148 64.0635Z" fill="#3F5E2D"/>
<path d="M114.784 62.8398L111.684 62.5907L111.937 63.1677L112.545 64.5495C112.767 65.0258 113.004 65.4621 113.257 65.8584C113.513 66.2473 113.71 66.5986 113.848 66.9124C113.926 67.0896 113.933 67.2286 113.868 67.3294C113.809 67.428 113.592 67.5597 113.217 67.7245L112.489 68.0451C112.322 68.1186 112.168 68.0925 112.028 67.9668C111.886 67.836 111.68 67.504 111.409 66.9707C111.141 66.4301 110.712 65.4892 110.121 64.148C109.805 63.4292 109.563 62.859 109.396 62.4373C109.234 62.0134 109.128 61.6912 109.08 61.471C109.029 61.2456 109.021 61.0918 109.058 61.0094C109.099 60.9248 109.18 60.8557 109.302 60.8023C109.408 60.7555 109.495 60.7202 109.563 60.6963C109.629 60.6673 109.701 60.6387 109.779 60.6104C109.931 60.5435 110.159 60.431 110.464 60.2727L110.631 60.1992C110.777 60.1593 110.881 60.2102 110.943 60.3519C111.086 60.6759 111.165 60.8704 111.182 60.9356C111.201 60.9935 111.205 61.0371 111.194 61.0662C111.181 61.0903 111.188 61.1625 111.217 61.2827C111.251 61.4008 111.323 61.6197 111.433 61.9396L114.51 62.2172C114.43 62.035 114.364 61.8919 114.312 61.7878C114.265 61.6815 114.212 61.5688 114.154 61.4495C113.842 60.7409 113.637 60.2059 113.538 59.8445C113.44 59.4832 113.413 59.2442 113.458 59.1276C113.502 59.0059 113.594 58.9139 113.736 58.8515C113.837 58.807 113.922 58.7728 113.99 58.7489C114.055 58.7199 114.127 58.6913 114.205 58.6629C114.378 58.5872 114.611 58.4724 114.906 58.3186L115.08 58.2417C115.228 58.2069 115.332 58.2578 115.392 58.3945C115.472 58.5767 115.529 58.7813 115.563 59.0082C115.596 59.2352 115.658 59.5007 115.75 59.8048C115.844 60.1016 116.05 60.6094 116.366 61.3281C116.629 61.9253 116.853 62.4006 117.038 62.7539C117.222 63.1021 117.449 63.5095 117.721 63.9759C117.998 64.4402 118.18 64.771 118.266 64.9684C118.347 65.1506 118.357 65.291 118.298 65.3896C118.241 65.4809 118.026 65.6089 117.651 65.7737L116.922 66.0944C116.765 66.1634 116.634 66.173 116.527 66.1232C116.426 66.0712 116.298 65.925 116.144 65.6847C115.993 65.4371 115.797 65.0549 115.558 64.538C115.321 64.0138 115.063 63.4478 114.784 62.8398Z" fill="#3F5E2D"/>
<path d="M120.339 59.0882L120.462 59.0187C120.459 58.4865 120.469 57.9944 120.493 57.5425C120.514 57.0858 120.571 56.5987 120.666 56.0812C120.765 55.5609 120.912 55.1026 121.107 54.7062C121.302 54.3098 121.563 54.0189 121.89 53.8335C122.058 53.7381 122.221 53.6776 122.378 53.6521C122.533 53.6218 122.629 53.6403 122.667 53.7077C122.686 53.7414 122.703 53.8717 122.717 54.0988C122.731 54.3259 122.778 54.5884 122.858 54.8864C122.902 55.0203 123.036 55.3229 123.258 55.7942L122.884 56.0253C122.747 55.9185 122.593 55.8597 122.422 55.8488C122.247 55.8331 122.088 55.8661 121.944 55.9479C121.694 56.0897 121.507 56.326 121.383 56.6568C121.259 56.9876 121.173 57.3412 121.126 57.7176C121.079 58.094 121.031 58.4926 120.984 58.9136C121.964 58.6695 122.841 58.614 123.616 58.7471C124.395 58.8775 125.025 59.1023 125.504 59.4216C125.989 59.7382 126.314 60.0432 126.481 60.3366C126.524 60.4136 126.514 60.4859 126.451 60.5536C126.388 60.6213 126.25 60.7151 126.038 60.835C125.988 60.8575 125.932 60.8827 125.872 60.9106C125.816 60.9358 125.765 60.9582 125.719 60.9779C125.673 60.9977 125.634 61.0133 125.603 61.0248C125.579 61.0385 125.538 61.0616 125.48 61.0944C125.432 61.1216 125.358 61.17 125.257 61.2396C125.157 61.3092 125.075 61.3618 125.013 61.3972C124.835 61.4981 124.705 61.5494 124.623 61.5512C124.539 61.5481 124.462 61.5125 124.391 61.4444C124.318 61.3714 124.128 61.1646 123.82 60.824C123.631 60.6134 123.377 60.3951 123.058 60.169C122.74 59.9429 122.368 59.769 121.943 59.6475C121.518 59.5259 121.082 59.5127 120.633 59.6078L120.916 60.1057C121.133 60.4783 121.402 60.8914 121.723 61.3453C122.041 61.7943 122.253 62.1126 122.359 62.3002C122.452 62.4638 122.478 62.5987 122.436 62.7048C122.392 62.8062 122.221 62.9414 121.922 63.1104L121.222 63.507C121.078 63.5888 120.948 63.6117 120.832 63.5756C120.714 63.5347 120.571 63.4059 120.403 63.1893C120.241 62.9699 120.023 62.6296 119.749 62.1684C119.472 61.7024 119.035 60.9426 118.438 59.889C117.955 59.0375 117.606 58.387 117.389 57.9377C117.178 57.4856 117.071 57.1742 117.07 57.0034C117.073 56.8299 117.154 56.6982 117.313 56.6082C117.356 56.5837 117.424 56.5517 117.516 56.5122C117.608 56.4728 117.676 56.4408 117.719 56.4162C117.955 56.2827 118.192 56.1292 118.43 55.9558L118.596 55.8618C118.723 55.8156 118.824 55.8599 118.901 55.9946C118.977 56.1293 119.124 56.4906 119.343 57.0785C119.564 57.6588 119.811 58.1895 120.083 58.6706C120.126 58.7353 120.164 58.7964 120.197 58.8542C120.234 58.9092 120.282 58.9872 120.339 59.0882Z" fill="#3F5E2D"/>
<path d="M126.314 51.2569L127.786 50.3412C127.894 50.274 127.97 50.2656 128.015 50.3161C128.023 50.3302 128.09 50.4159 128.214 50.5733C128.339 50.723 128.446 50.8422 128.534 50.9309C129.294 51.6821 129.983 52.3283 130.599 52.8694C130.678 52.944 131.044 53.2701 131.697 53.8476C132.346 54.4204 132.787 54.8002 133.021 54.9871C133.237 55.1781 133.432 55.3338 133.605 55.4543C133.774 55.5701 133.868 55.6421 133.886 55.6703C133.938 55.7548 133.868 55.8569 133.676 55.9767L132.204 56.8924C132.138 56.9333 132.071 56.9259 132.004 56.8701C131.937 56.8142 131.716 56.6063 131.343 56.2462C130.973 55.8832 130.574 55.5193 130.146 55.1544C130.627 57.017 130.351 58.2696 129.318 58.9122C128.741 59.2715 128.211 59.3147 127.729 59.0417C127.246 58.7688 126.872 58.4187 126.606 57.9914C126.355 57.5876 126.232 57.0713 126.238 56.4424C126.249 55.8105 126.316 55.1014 126.439 54.3151C126.509 53.8739 126.577 53.4901 126.641 53.1637C126.709 52.8345 126.751 52.6133 126.765 52.5002C126.779 52.3871 126.762 52.2906 126.712 52.2108C126.63 52.0793 126.515 51.9522 126.367 51.8294C126.221 51.699 126.125 51.5962 126.078 51.5211C126.043 51.4647 126.122 51.3767 126.314 51.2569ZM127.319 52.6051C127.194 53.2625 127.134 53.8368 127.14 54.328C127.148 54.8115 127.189 55.1964 127.263 55.4826C127.337 55.7688 127.422 55.9894 127.518 56.1443C127.682 56.4072 127.898 56.592 128.166 56.6987C128.431 56.8006 128.702 56.7654 128.979 56.5931C129.224 56.4412 129.401 56.2496 129.511 56.0183C129.623 55.7793 129.672 55.54 129.66 55.3003C129.652 55.0576 129.593 54.847 129.482 54.6686C129.423 54.5747 129.259 54.3938 128.988 54.126C128.722 53.8552 128.419 53.568 128.081 53.2643C127.742 52.9605 127.488 52.7408 127.319 52.6051Z" fill="#3F5E2D"/>
<path d="M54.5092 40.4949C29.0286 48.8209 11.3338 52.2703 1.84937 50.8547C8.36107 54.3937 26.0559 61.5566 53.2352 66.9925C80.4145 72.4283 113.964 55.8092 126.28 46.1832C110.991 39.8131 81.0256 31.8304 54.5092 40.4949Z" fill="url(#paint0_linear)"/>
<path d="M1.84937 50.9141C10.9091 62.9466 36.7578 85.6782 65.9755 78.8834C63.1443 71.947 46.0157 56.3499 1.84937 50.9141Z" fill="url(#paint1_linear)"/>
<path d="M51.9738 35.8236C20.8195 46.4973 5.25945 47.1483 1.01269 45.1664C0.672949 40.0704 7.24128 39.3625 10.3556 39.6455V33.2754H13.753V25.2065H24.3699V29.0286H26.4933V26.4806H29.0413L29.466 23.5078H32.0141V20.1104H37.9595V9.49353H39.2209V11.1922H41.3569V9.49353H42.631V14.5896H43.905V17.1377H48.5764V20.1104H50.6998V11.1922H51.9738V9.49353H53.6725V8.2195H54.9466V3.97273H59.618V20.1104H61.7414V12.0416H65.9882V17.1377H69.3856V5.24676H71.0843V3.97273H72.783V2.69871H74.4817V1H76.6051V2.69871H78.3038V3.97273H80.0025V5.24676H81.7012V12.0416H84.6739V6.09612H90.6194V18.4117H92.7428V14.5896H94.8661V10.3429H105.058V13.3156H108.031V19.2611H114.401V26.0559H119.922L127.142 40.4949C114.826 35.3988 82.9625 25.2065 51.9738 35.8236Z" stroke="#334D2D" stroke-width="0.594547"/>
<rect x="19.2003" y="28.1792" width="0.970689" height="1.94138" fill="#334D2D"/>
<rect x="16.2883" y="31.0913" width="0.970689" height="1.94138" fill="#334D2D"/>
<rect x="16.2883" y="34.9741" width="0.970689" height="1.94138" fill="#334D2D"/>
<rect x="16.2883" y="38.8569" width="0.970689" height="1.94138" fill="#334D2D"/>
<rect x="22.1125" y="31.0913" width="0.970689" height="1.94138" fill="#334D2D"/>
<rect x="28.1793" y="28.1792" width="0.970689" height="1.94138" fill="#334D2D"/>
<rect x="37.5221" y="22.2339" width="0.970689" height="1.94138" fill="#334D2D"/>
<rect x="40.0702" y="14.5896" width="0.970689" height="1.94138" fill="#334D2D"/>
<rect x="22.1125" y="34.9741" width="0.970689" height="1.94138" fill="#334D2D"/>
<rect x="28.1793" y="32.062" width="0.970689" height="1.94138" fill="#334D2D"/>
<rect x="37.5221" y="26.1167" width="0.970689" height="1.94138" fill="#334D2D"/>
<rect x="40.0702" y="18.4724" width="0.970689" height="1.94138" fill="#334D2D"/>
<rect x="42.6183" y="22.2339" width="0.970689" height="1.94138" fill="#334D2D"/>
<rect x="45.1663" y="18.8364" width="0.970689" height="1.94138" fill="#334D2D"/>
<rect x="49.4131" y="23.0833" width="0.970689" height="1.94138" fill="#334D2D"/>
<rect x="57.0573" y="19.6858" width="0.970689" height="1.94138" fill="#334D2D"/>
<rect x="57.0573" y="10.3428" width="0.970689" height="1.94138" fill="#334D2D"/>
<rect x="72.3456" y="6.09619" width="0.970689" height="1.94138" fill="#334D2D"/>
<rect x="72.3456" y="11.1921" width="0.970689" height="1.94138" fill="#334D2D"/>
<rect x="72.3456" y="16.2883" width="0.970689" height="1.94138" fill="#334D2D"/>
<rect x="77.4418" y="11.1921" width="0.970689" height="1.94138" fill="#334D2D"/>
<rect x="77.4418" y="17.1377" width="0.970689" height="1.94138" fill="#334D2D"/>
<rect x="77.4418" y="23.0833" width="0.970689" height="1.94138" fill="#334D2D"/>
<rect x="97.8262" y="13.7402" width="0.970689" height="1.94138" fill="#334D2D"/>
<rect x="97.8262" y="17.9871" width="0.970689" height="1.94138" fill="#334D2D"/>
<rect x="102.922" y="15.439" width="0.970689" height="1.94138" fill="#334D2D"/>
<rect x="93.5795" y="21.3845" width="0.970689" height="1.94138" fill="#334D2D"/>
<rect x="108.018" y="21.3845" width="0.970689" height="1.94138" fill="#334D2D"/>
<rect x="97.8262" y="23.0833" width="0.970689" height="1.94138" fill="#334D2D"/>
<rect x="108.018" y="26.4805" width="0.970689" height="1.94138" fill="#334D2D"/>
<rect x="67.2495" y="20.5352" width="0.970689" height="1.94138" fill="#334D2D"/>
<rect x="68.0989" y="24.782" width="0.970689" height="1.94138" fill="#334D2D"/>
<rect x="77.4418" y="6.09619" width="0.970689" height="1.94138" fill="#334D2D"/>
<rect x="54.5092" y="10.3428" width="0.970689" height="1.94138" fill="#334D2D"/>
<rect x="54.5092" y="14.5896" width="0.970689" height="1.94138" fill="#334D2D"/>
<rect x="57.0573" y="6.09619" width="0.970689" height="1.94138" fill="#334D2D"/>
<rect x="53.6598" y="25.6311" width="0.970689" height="1.94138" fill="#334D2D"/>
<rect x="49.4131" y="27.3298" width="0.970689" height="1.94138" fill="#334D2D"/>
<rect x="57.0573" y="23.9326" width="0.970689" height="1.94138" fill="#334D2D"/>
<rect x="57.0573" y="14.5896" width="0.970689" height="1.94138" fill="#334D2D"/>
<rect x="37.5221" y="29.8779" width="0.970689" height="1.94138" fill="#334D2D"/>
<defs>
<linearGradient id="paint0_linear" x1="125.855" y1="45.8181" x2="3.12338" y2="52.1882" gradientUnits="userSpaceOnUse">
<stop stop-color="#8FB92C"/>
<stop offset="0.535697" stop-color="#3F5F2D"/>
<stop offset="1" stop-color="#334D2D"/>
</linearGradient>
<linearGradient id="paint1_linear" x1="35.8235" y1="76.3946" x2="39.6456" y2="60.2569" gradientUnits="userSpaceOnUse">
<stop stop-color="#5B7A2D"/>
<stop offset="1" stop-color="#60832B"/>
</linearGradient>
</defs>
</svg>
