<svg width="16" height="17" viewBox="0 0 16 17" fill="none" xmlns="http://www.w3.org/2000/svg">
<path d="M10.8036 2.33594H4.82386C4.59729 2.33594 4.38001 2.42594 4.21981 2.58614C4.05961 2.74634 3.9696 2.96363 3.9696 3.19019V13.4412C3.9696 13.6678 4.05961 13.885 4.21981 14.0452C4.38001 14.2055 4.59729 14.2955 4.82386 14.2955H10.8036C11.0302 14.2955 11.2475 14.2055 11.4077 14.0452C11.5679 13.885 11.6579 13.6678 11.6579 13.4412V3.19019C11.6579 2.96363 11.5679 2.74634 11.4077 2.58614C11.2475 2.42594 11.0302 2.33594 10.8036 2.33594ZM4.82386 3.19019H10.8036V10.8784H4.82386V3.19019ZM4.82386 13.4412V11.7327H10.8036V13.4412H4.82386Z" fill="#767676"/>
<path d="M7.3866 12.1598H8.24085V13.014H7.3866V12.1598Z" fill="#767676"/>
</svg>
