<svg width="314" height="22" viewBox="0 0 314 22" fill="none" xmlns="http://www.w3.org/2000/svg">
<g clip-path="url(#clip0)">
<path d="M105.161 12.2484H5.12866C4.96465 12.2484 4.80736 12.184 4.69139 12.0692C4.57542 11.9544 4.51025 11.7987 4.51025 11.6364C4.51025 11.4741 4.57542 11.3184 4.69139 11.2037C4.80736 11.0889 4.96465 11.0244 5.12866 11.0244H105.161C105.325 11.0244 105.483 11.0889 105.599 11.2037C105.715 11.3184 105.78 11.4741 105.78 11.6364C105.78 11.7987 105.715 11.9544 105.599 12.0692C105.483 12.184 105.325 12.2484 105.161 12.2484Z" fill="#C2AD95"/>
<path d="M308.847 12.2484H208.814C208.65 12.2484 208.493 12.184 208.377 12.0692C208.261 11.9544 208.195 11.7987 208.195 11.6364C208.195 11.4741 208.261 11.3184 208.377 11.2037C208.493 11.0889 208.65 11.0244 208.814 11.0244H308.847C309.011 11.0244 309.168 11.0889 309.284 11.2037C309.4 11.3184 309.465 11.4741 309.465 11.6364C309.465 11.7987 309.4 11.9544 309.284 12.0692C309.168 12.184 309.011 12.2484 308.847 12.2484Z" fill="#C2AD95"/>
<path d="M145.671 22C143.949 21.9985 142.245 21.6573 140.658 20.9963C138.832 20.1886 137.265 18.9028 136.124 17.2777C134.983 15.6526 134.313 13.75 134.185 11.7753C134.044 9.52114 134.581 7.27625 135.729 5.3242C136.877 3.37215 138.583 1.80053 140.633 0.807903C142.513 -0.101819 144.68 -0.235488 146.66 0.436299C148.639 1.10809 150.267 2.53031 151.187 4.39023C151.827 5.67383 151.925 7.15611 151.461 8.51164C150.998 9.86717 150.009 10.9852 148.713 11.6202C147.797 12.0627 146.741 12.1273 145.776 11.7999C144.811 11.4726 144.018 10.7799 143.568 9.87391C143.247 9.22127 143.2 8.46898 143.438 7.78208C143.676 7.09518 144.179 6.52978 144.838 6.20998C145.326 5.97582 145.888 5.94222 146.401 6.11651C146.914 6.29081 147.336 6.65884 147.576 7.14026C147.667 7.3234 147.721 7.52261 147.735 7.7265C147.748 7.93038 147.721 8.13491 147.654 8.32828C147.587 8.52166 147.483 8.70006 147.346 8.85329C147.21 9.00651 147.044 9.13152 146.858 9.22111C146.562 9.35705 146.224 9.37342 145.917 9.26675C145.609 9.16009 145.355 8.93879 145.209 8.64988C145.154 8.50736 145.155 8.34959 145.211 8.20748C145.267 8.06537 145.375 7.94918 145.513 7.88174C145.652 7.8143 145.811 7.80048 145.959 7.84295C146.107 7.88542 146.234 7.98111 146.314 8.1113C146.393 8.07258 146.454 8.00486 146.483 7.92254C146.512 7.84021 146.508 7.74983 146.471 7.67067C146.373 7.48124 146.205 7.33688 146.002 7.26831C145.799 7.19973 145.576 7.21233 145.382 7.30345C145.201 7.39128 145.04 7.51353 144.907 7.66319C144.774 7.81286 144.672 7.98701 144.607 8.1757C144.541 8.36439 144.515 8.56391 144.527 8.76289C144.54 8.96187 144.593 9.15639 144.681 9.33534C144.987 9.94873 145.525 10.4176 146.179 10.6393C146.832 10.861 147.548 10.8176 148.169 10.5186C149.176 10.0301 149.945 9.16616 150.309 8.11651C150.672 7.06685 150.599 5.91739 150.107 4.92067C149.723 4.14356 149.188 3.44898 148.532 2.87663C147.877 2.30428 147.114 1.86537 146.287 1.58498C145.46 1.30459 144.585 1.1882 143.712 1.24249C142.84 1.29677 141.987 1.52068 141.202 1.90137C139.366 2.78204 137.837 4.18363 136.809 5.92755C135.781 7.67147 135.301 9.67875 135.43 11.6937C135.543 13.4406 136.135 15.1238 137.144 16.5619C138.152 18 139.538 19.1382 141.152 19.8539C144.022 21.0441 147.251 21.0587 150.131 19.8944C153.011 18.73 155.307 16.482 156.514 13.6439C156.541 13.5649 156.585 13.4923 156.642 13.4307C156.699 13.369 156.769 13.3197 156.846 13.2856C156.923 13.2515 157.007 13.2334 157.091 13.2325C157.176 13.2316 157.259 13.2479 157.337 13.2803C157.415 13.3127 157.486 13.3606 157.544 13.421C157.603 13.4814 157.648 13.5531 157.678 13.6315C157.707 13.7099 157.72 13.7935 157.715 13.877C157.711 13.9606 157.689 14.0423 157.651 14.1172C156.661 16.4518 154.997 18.4454 152.867 19.849C150.738 21.2525 148.238 22.0035 145.679 22.0082L145.671 22Z" fill="#C2AD95"/>
<path d="M143.403 21.7796H143.255C137.079 20.3026 132.008 16.4591 127.531 13.0645C122.246 9.0578 117.686 5.59786 112.368 6.1854C110.52 6.39055 108.83 7.31225 107.668 8.74855C106.505 10.1848 105.966 12.0186 106.167 13.8479C106.281 14.8461 106.791 15.7588 107.583 16.386C108.376 17.0132 109.388 17.3036 110.397 17.1936C110.917 17.1361 111.392 16.877 111.718 16.473C112.044 16.069 112.195 15.5533 112.137 15.0393C112.129 14.9212 112.097 14.8059 112.042 14.7004C111.988 14.5948 111.913 14.5012 111.821 14.425C111.73 14.3489 111.624 14.2918 111.509 14.2571C111.395 14.2224 111.275 14.2109 111.156 14.2232C111.122 14.2272 111.089 14.238 111.059 14.2548C111.029 14.2716 111.003 14.2942 110.983 14.3212C110.939 14.3739 110.919 14.4412 110.925 14.5089C110.937 14.5905 110.933 14.6739 110.912 14.7539C110.891 14.8339 110.854 14.9088 110.803 14.9743C110.752 15.0397 110.689 15.0943 110.616 15.1347C110.543 15.1751 110.463 15.2004 110.38 15.2093C110.297 15.2181 110.213 15.2102 110.133 15.186C110.053 15.1619 109.979 15.1219 109.915 15.0687C109.851 15.0155 109.799 14.95 109.761 14.8762C109.724 14.8024 109.702 14.7219 109.696 14.6394C109.675 14.4465 109.691 14.2512 109.746 14.0648C109.8 13.8783 109.892 13.7043 110.014 13.5528C110.137 13.4012 110.288 13.275 110.46 13.1814C110.632 13.0878 110.821 13.0287 111.016 13.0073C111.575 12.9478 112.136 13.1102 112.575 13.4589C113.014 13.8076 113.295 14.3143 113.357 14.8679C113.45 15.7043 113.203 16.5429 112.671 17.1993C112.139 17.8557 111.366 18.2763 110.521 18.3686C109.186 18.513 107.848 18.1276 106.8 17.2969C105.752 16.4663 105.08 15.2582 104.931 13.9376C104.699 11.7904 105.337 9.63988 106.705 7.95738C108.073 6.27488 110.059 5.19754 112.228 4.96137C117.999 4.32487 123.013 8.09491 128.273 12.0853C132.866 15.5697 137.623 19.1683 143.544 20.5882C143.692 20.6227 143.822 20.7102 143.909 20.8337C143.996 20.9573 144.034 21.1083 144.016 21.2578C143.997 21.4074 143.924 21.545 143.809 21.6443C143.695 21.7436 143.547 21.7976 143.395 21.7959L143.403 21.7796Z" fill="#C2AD95"/>
<path d="M145.976 9.18839C146.468 9.18839 146.866 8.79382 146.866 8.30709C146.866 7.82036 146.468 7.42578 145.976 7.42578C145.484 7.42578 145.085 7.82036 145.085 8.30709C145.085 8.79382 145.484 9.18839 145.976 9.18839Z" fill="#C2AD95"/>
<path d="M110.554 15.4311C111.046 15.4311 111.444 15.0365 111.444 14.5498C111.444 14.063 111.046 13.6685 110.554 13.6685C110.062 13.6685 109.663 14.063 109.663 14.5498C109.663 15.0365 110.062 15.4311 110.554 15.4311Z" fill="#C2AD95"/>
<path d="M168.568 22C166.01 21.9964 163.509 21.2457 161.379 19.8421C159.25 18.4385 157.586 16.4442 156.596 14.109C156.558 14.0341 156.537 13.9524 156.532 13.8688C156.528 13.7853 156.54 13.7017 156.57 13.6233C156.599 13.5448 156.645 13.4732 156.703 13.4128C156.762 13.3524 156.832 13.3045 156.91 13.2721C156.988 13.2397 157.072 13.2234 157.156 13.2243C157.241 13.2252 157.324 13.2433 157.402 13.2774C157.479 13.3114 157.548 13.3608 157.605 13.4225C157.662 13.4841 157.706 13.5567 157.734 13.6357C158.328 15.0449 159.197 16.3243 160.292 17.4008C161.386 18.4773 162.684 19.3298 164.111 19.9095C165.539 20.4893 167.067 20.785 168.61 20.7796C170.153 20.7742 171.68 20.468 173.103 19.8783C174.717 19.1627 176.103 18.0244 177.112 16.5863C178.12 15.1483 178.713 13.465 178.826 11.7181C178.955 9.70317 178.475 7.69588 177.447 5.95196C176.419 4.20804 174.889 2.80645 173.054 1.92579C172.269 1.54509 171.416 1.32119 170.543 1.2669C169.671 1.21261 168.796 1.329 167.969 1.60939C167.142 1.88978 166.379 2.32869 165.724 2.90104C165.068 3.47339 164.533 4.16798 164.149 4.94508C163.656 5.9418 163.584 7.09126 163.947 8.14092C164.31 9.19058 165.08 10.0545 166.086 10.543C166.708 10.842 167.423 10.8854 168.077 10.6637C168.731 10.442 169.269 9.97314 169.574 9.35975C169.663 9.1808 169.715 8.98628 169.728 8.7873C169.741 8.58833 169.714 8.38881 169.649 8.20011C169.584 8.01142 169.482 7.83727 169.349 7.68761C169.216 7.53795 169.054 7.41569 168.873 7.32786C168.679 7.23674 168.457 7.22414 168.254 7.29272C168.051 7.3613 167.882 7.50565 167.785 7.69508C167.765 7.7347 167.754 7.77778 167.751 7.82184C167.748 7.86589 167.754 7.91004 167.769 7.95176C167.783 7.99347 167.806 8.03192 167.836 8.06489C167.866 8.09787 167.901 8.12472 167.942 8.14388C168.016 8.00088 168.143 7.89156 168.296 7.83842C168.45 7.78529 168.618 7.79239 168.766 7.85827C168.84 7.89243 168.906 7.94067 168.961 8.00022C169.016 8.05976 169.058 8.12945 169.086 8.20527C169.113 8.28109 169.126 8.36156 169.122 8.44205C169.118 8.52254 169.098 8.60145 169.063 8.67429C168.917 8.9632 168.664 9.1845 168.356 9.29117C168.048 9.39783 167.71 9.38146 167.414 9.24552C167.228 9.15594 167.063 9.03095 166.926 8.87773C166.789 8.7245 166.685 8.54607 166.618 8.3527C166.551 8.15932 166.524 7.9548 166.538 7.75091C166.551 7.54703 166.605 7.34781 166.697 7.16467C166.936 6.68326 167.359 6.31522 167.872 6.14093C168.384 5.96664 168.946 6.00024 169.434 6.23439C170.093 6.5542 170.597 7.11959 170.835 7.8065C171.073 8.4934 171.026 9.24569 170.704 9.89833C170.255 10.8043 169.461 11.497 168.496 11.8244C167.532 12.1517 166.475 12.0871 165.559 11.6446C164.263 11.0096 163.275 9.89159 162.811 8.53606C162.347 7.18053 162.446 5.69824 163.085 4.41465C164.005 2.55473 165.633 1.1325 167.613 0.460713C169.592 -0.211074 171.76 -0.0774049 173.639 0.832317C175.689 1.82494 177.395 3.39656 178.543 5.34861C179.691 7.30066 180.228 9.54556 180.087 11.7997C179.959 13.7744 179.289 15.677 178.148 17.3021C177.007 18.9272 175.44 20.2131 173.614 21.0207C172.015 21.6774 170.3 22.0104 168.568 22Z" fill="#C2AD95"/>
<path d="M170.836 21.7797C170.683 21.7813 170.536 21.7274 170.421 21.6281C170.307 21.5288 170.233 21.3912 170.215 21.2416C170.197 21.0921 170.235 20.9411 170.322 20.8175C170.409 20.6939 170.539 20.6065 170.687 20.572C176.607 19.1521 181.357 15.5534 185.958 12.069C191.226 8.07867 196.198 4.31682 202.003 4.94515C204.172 5.18132 206.158 6.25867 207.526 7.94117C208.893 9.62367 209.532 11.7741 209.3 13.9214C209.151 15.242 208.479 16.4501 207.431 17.2807C206.383 18.1114 205.045 18.4968 203.71 18.3524C202.865 18.2601 202.091 17.8395 201.56 17.1831C201.028 16.5266 200.781 15.6881 200.874 14.8517C200.904 14.5768 200.99 14.3106 201.124 14.0683C201.259 13.826 201.441 13.6123 201.659 13.4395C201.877 13.2668 202.128 13.1382 202.396 13.0613C202.665 12.9844 202.946 12.9605 203.223 12.9911C203.418 13.0125 203.607 13.0716 203.779 13.1652C203.951 13.2588 204.102 13.385 204.225 13.5365C204.347 13.6881 204.439 13.8621 204.493 14.0485C204.548 14.235 204.565 14.4303 204.543 14.6232C204.537 14.7056 204.515 14.7862 204.478 14.86C204.44 14.9337 204.388 14.9992 204.324 15.0525C204.26 15.1057 204.186 15.1456 204.106 15.1698C204.027 15.1939 203.943 15.2018 203.86 15.193C203.777 15.1842 203.696 15.1588 203.623 15.1185C203.551 15.0781 203.487 15.0235 203.436 14.9581C203.385 14.8926 203.348 14.8177 203.327 14.7377C203.306 14.6577 203.302 14.5743 203.314 14.4926C203.32 14.425 203.3 14.3577 203.256 14.3049C203.236 14.278 203.21 14.2554 203.18 14.2386C203.15 14.2218 203.117 14.211 203.083 14.207C202.964 14.1947 202.844 14.2062 202.73 14.2408C202.615 14.2755 202.509 14.3327 202.418 14.4088C202.326 14.485 202.251 14.5786 202.197 14.6841C202.143 14.7897 202.11 14.9049 202.102 15.023C202.044 15.537 202.195 16.0527 202.521 16.4567C202.847 16.8607 203.323 17.1199 203.842 17.1773C204.851 17.2874 205.863 16.997 206.656 16.3698C207.449 15.7426 207.958 14.8299 208.072 13.8316C208.273 12.0011 207.732 10.1662 206.568 8.72972C205.404 7.2932 203.712 6.37234 201.863 6.16919C196.545 5.58165 191.969 9.04975 186.7 13.0483C182.223 16.4429 177.143 20.2864 170.976 21.7634L170.836 21.7797Z" fill="#C2AD95"/>
<path d="M168.255 9.18839C168.747 9.18839 169.145 8.79382 169.145 8.30709C169.145 7.82036 168.747 7.42578 168.255 7.42578C167.763 7.42578 167.364 7.82036 167.364 8.30709C167.364 8.79382 167.763 9.18839 168.255 9.18839Z" fill="#C2AD95"/>
<path d="M203.677 15.4311C204.169 15.4311 204.568 15.0365 204.568 14.5498C204.568 14.063 204.169 13.6685 203.677 13.6685C203.185 13.6685 202.786 14.063 202.786 14.5498C202.786 15.0365 203.185 15.4311 203.677 15.4311Z" fill="#C2AD95"/>
<path d="M311.122 14.5661C310.553 14.5661 309.997 14.3991 309.524 14.0861C309.05 13.7732 308.682 13.3284 308.464 12.808C308.246 12.2876 308.189 11.715 308.3 11.1626C308.411 10.6101 308.685 10.1027 309.088 9.70438C309.49 9.30609 310.003 9.03485 310.561 8.92496C311.119 8.81507 311.698 8.87148 312.224 9.08703C312.749 9.30258 313.199 9.66761 313.515 10.1359C313.831 10.6043 314 11.1549 314 11.7182C313.998 12.4728 313.694 13.1959 313.155 13.7296C312.616 14.2632 311.885 14.5639 311.122 14.5661ZM311.122 10.0861C310.796 10.0861 310.477 10.1818 310.206 10.3612C309.935 10.5405 309.724 10.7954 309.599 11.0936C309.474 11.3918 309.441 11.72 309.505 12.0365C309.569 12.3531 309.726 12.644 309.956 12.8722C310.187 13.1004 310.481 13.2559 310.801 13.3189C311.121 13.3818 311.452 13.3495 311.753 13.226C312.055 13.1024 312.312 12.8933 312.493 12.6249C312.675 12.3565 312.771 12.041 312.771 11.7182C312.771 11.2853 312.598 10.8702 312.288 10.5641C311.979 10.2581 311.56 10.0861 311.122 10.0861Z" fill="#C2AD95"/>
<path d="M2.88593 14.46C2.31678 14.46 1.76043 14.293 1.2872 13.98C0.813979 13.6671 0.445145 13.2223 0.227344 12.7019C0.00954278 12.1816 -0.0474374 11.6089 0.0635967 11.0565C0.174631 10.5041 0.4487 9.99659 0.851144 9.5983C1.25359 9.20001 1.76632 8.92877 2.32453 8.81888C2.88274 8.70899 3.46133 8.7654 3.98715 8.98095C4.51297 9.1965 4.9624 9.56153 5.2786 10.0299C5.5948 10.4982 5.76356 11.0488 5.76356 11.6121C5.76139 12.3667 5.45751 13.0899 4.91832 13.6235C4.37913 14.1571 3.64845 14.4578 2.88593 14.46ZM2.88593 9.98004C2.55977 9.98004 2.24095 10.0758 1.96976 10.2551C1.69857 10.4344 1.4872 10.6893 1.36239 10.9875C1.23758 11.2858 1.20492 11.6139 1.26855 11.9305C1.33218 12.2471 1.48924 12.5379 1.71987 12.7661C1.95049 12.9944 2.24433 13.1498 2.56422 13.2128C2.88411 13.2758 3.21568 13.2434 3.51701 13.1199C3.81834 12.9964 4.07589 12.7872 4.25709 12.5188C4.43829 12.2504 4.535 11.9349 4.535 11.6121C4.535 11.1792 4.36126 10.7641 4.052 10.4581C3.74274 10.152 3.32329 9.98004 2.88593 9.98004Z" fill="#C2AD95"/>
</g>
<defs>
<clipPath id="clip0">
<rect width="314" height="22" fill="white"/>
</clipPath>
</defs>
</svg>
